<mxfile host="app.diagrams.net" modified="2020-05-20T07:51:01.277Z" agent="5.0 (Windows NT 10.0; Win64; x64) AppleWebKit/537.36 (KHTML, like Gecko) Chrome/81.0.4044.138 Safari/537.36" etag="Xb8JRz5iguRoG9PepRzu" version="13.1.3" type="github">
  <diagram id="C5RBs43oDa-KdzZeNtuy" name="Page-1">
    <mxGraphModel dx="1221" dy="625" grid="1" gridSize="10" guides="1" tooltips="1" connect="1" arrows="1" fold="1" page="1" pageScale="1" pageWidth="827" pageHeight="1169" math="0" shadow="0">
      <root>
        <mxCell id="WIyWlLk6GJQsqaUBKTNV-0" />
        <mxCell id="WIyWlLk6GJQsqaUBKTNV-1" parent="WIyWlLk6GJQsqaUBKTNV-0" />
        <mxCell id="VbChTKFuJ5i-f_LWvNHz-31" value="" style="edgeStyle=orthogonalEdgeStyle;rounded=0;orthogonalLoop=1;jettySize=auto;html=1;" parent="WIyWlLk6GJQsqaUBKTNV-1" source="VbChTKFuJ5i-f_LWvNHz-0" target="VbChTKFuJ5i-f_LWvNHz-2" edge="1">
          <mxGeometry relative="1" as="geometry" />
        </mxCell>
        <mxCell id="VbChTKFuJ5i-f_LWvNHz-0" value="Sign Up Action" style="shape=process;whiteSpace=wrap;html=1;backgroundOutline=1;" parent="WIyWlLk6GJQsqaUBKTNV-1" vertex="1">
          <mxGeometry x="50" y="30" width="120" height="60" as="geometry" />
        </mxCell>
        <mxCell id="VbChTKFuJ5i-f_LWvNHz-32" value="" style="edgeStyle=orthogonalEdgeStyle;rounded=0;orthogonalLoop=1;jettySize=auto;html=1;" parent="WIyWlLk6GJQsqaUBKTNV-1" source="VbChTKFuJ5i-f_LWvNHz-2" target="VbChTKFuJ5i-f_LWvNHz-3" edge="1">
          <mxGeometry relative="1" as="geometry" />
        </mxCell>
        <mxCell id="VbChTKFuJ5i-f_LWvNHz-2" value="Initialize Main_details structure object" style="rounded=1;whiteSpace=wrap;html=1;absoluteArcSize=1;arcSize=14;strokeWidth=1;" parent="WIyWlLk6GJQsqaUBKTNV-1" vertex="1">
          <mxGeometry x="229" y="30" width="100" height="100" as="geometry" />
        </mxCell>
        <mxCell id="VbChTKFuJ5i-f_LWvNHz-33" value="" style="edgeStyle=orthogonalEdgeStyle;rounded=0;orthogonalLoop=1;jettySize=auto;html=1;" parent="WIyWlLk6GJQsqaUBKTNV-1" source="VbChTKFuJ5i-f_LWvNHz-3" target="VbChTKFuJ5i-f_LWvNHz-7" edge="1">
          <mxGeometry relative="1" as="geometry" />
        </mxCell>
        <mxCell id="VbChTKFuJ5i-f_LWvNHz-3" value="Request Main_details object variables&amp;nbsp;" style="shape=parallelogram;html=1;strokeWidth=1;perimeter=parallelogramPerimeter;whiteSpace=wrap;rounded=1;arcSize=12;size=0.1111111111111111;spacingLeft=20;spacingRight=15;" parent="WIyWlLk6GJQsqaUBKTNV-1" vertex="1">
          <mxGeometry x="390" y="35" width="120" height="90" as="geometry" />
        </mxCell>
        <mxCell id="VbChTKFuJ5i-f_LWvNHz-35" value="" style="edgeStyle=orthogonalEdgeStyle;rounded=0;orthogonalLoop=1;jettySize=auto;html=1;" parent="WIyWlLk6GJQsqaUBKTNV-1" source="VbChTKFuJ5i-f_LWvNHz-7" target="VbChTKFuJ5i-f_LWvNHz-8" edge="1">
          <mxGeometry relative="1" as="geometry" />
        </mxCell>
        <mxCell id="VbChTKFuJ5i-f_LWvNHz-7" value="Request Selection: Farmer or buyer" style="shape=parallelogram;html=1;strokeWidth=1;perimeter=parallelogramPerimeter;whiteSpace=wrap;rounded=1;arcSize=12;size=0.08888888888888889;spacingLeft=15;spacingRight=20;" parent="WIyWlLk6GJQsqaUBKTNV-1" vertex="1">
          <mxGeometry x="375" y="160" width="150" height="80" as="geometry" />
        </mxCell>
        <mxCell id="VbChTKFuJ5i-f_LWvNHz-17" style="edgeStyle=orthogonalEdgeStyle;rounded=0;orthogonalLoop=1;jettySize=auto;html=1;exitX=0.5;exitY=1;exitDx=0;exitDy=0;" parent="WIyWlLk6GJQsqaUBKTNV-1" source="VbChTKFuJ5i-f_LWvNHz-8" target="VbChTKFuJ5i-f_LWvNHz-13" edge="1">
          <mxGeometry relative="1" as="geometry">
            <Array as="points">
              <mxPoint x="450" y="370" />
              <mxPoint x="310" y="370" />
            </Array>
          </mxGeometry>
        </mxCell>
        <mxCell id="VbChTKFuJ5i-f_LWvNHz-8" value="Switch Selection" style="shape=parallelogram;perimeter=parallelogramPerimeter;whiteSpace=wrap;html=1;" parent="WIyWlLk6GJQsqaUBKTNV-1" vertex="1">
          <mxGeometry x="390" y="290" width="120" height="60" as="geometry" />
        </mxCell>
        <mxCell id="VbChTKFuJ5i-f_LWvNHz-18" style="edgeStyle=orthogonalEdgeStyle;rounded=0;orthogonalLoop=1;jettySize=auto;html=1;exitX=1;exitY=0.5;exitDx=0;exitDy=0;exitPerimeter=0;entryX=0;entryY=0.5;entryDx=0;entryDy=0;entryPerimeter=0;" parent="WIyWlLk6GJQsqaUBKTNV-1" source="VbChTKFuJ5i-f_LWvNHz-13" target="VbChTKFuJ5i-f_LWvNHz-16" edge="1">
          <mxGeometry relative="1" as="geometry" />
        </mxCell>
        <mxCell id="VbChTKFuJ5i-f_LWvNHz-19" style="edgeStyle=orthogonalEdgeStyle;rounded=0;orthogonalLoop=1;jettySize=auto;html=1;exitX=0;exitY=0.5;exitDx=0;exitDy=0;exitPerimeter=0;entryX=1;entryY=0.5;entryDx=0;entryDy=0;" parent="WIyWlLk6GJQsqaUBKTNV-1" source="VbChTKFuJ5i-f_LWvNHz-13" target="VbChTKFuJ5i-f_LWvNHz-15" edge="1">
          <mxGeometry relative="1" as="geometry" />
        </mxCell>
        <mxCell id="VbChTKFuJ5i-f_LWvNHz-13" value="Case: Farmer" style="strokeWidth=1;html=1;shape=mxgraph.flowchart.decision;whiteSpace=wrap;" parent="WIyWlLk6GJQsqaUBKTNV-1" vertex="1">
          <mxGeometry x="260" y="390" width="100" height="100" as="geometry" />
        </mxCell>
        <mxCell id="VbChTKFuJ5i-f_LWvNHz-23" style="edgeStyle=orthogonalEdgeStyle;rounded=0;orthogonalLoop=1;jettySize=auto;html=1;exitX=0.5;exitY=1;exitDx=0;exitDy=0;entryX=0;entryY=0.5;entryDx=0;entryDy=0;" parent="WIyWlLk6GJQsqaUBKTNV-1" source="VbChTKFuJ5i-f_LWvNHz-15" target="VbChTKFuJ5i-f_LWvNHz-22" edge="1">
          <mxGeometry relative="1" as="geometry">
            <Array as="points">
              <mxPoint x="120" y="540" />
            </Array>
          </mxGeometry>
        </mxCell>
        <mxCell id="VbChTKFuJ5i-f_LWvNHz-15" value="Request Farmer Details" style="shape=parallelogram;html=1;strokeWidth=1;perimeter=parallelogramPerimeter;whiteSpace=wrap;rounded=1;arcSize=12;size=0.13333333333333333;" parent="WIyWlLk6GJQsqaUBKTNV-1" vertex="1">
          <mxGeometry x="65" y="405" width="110" height="70" as="geometry" />
        </mxCell>
        <mxCell id="VbChTKFuJ5i-f_LWvNHz-21" style="edgeStyle=orthogonalEdgeStyle;rounded=0;orthogonalLoop=1;jettySize=auto;html=1;exitX=1;exitY=0.5;exitDx=0;exitDy=0;exitPerimeter=0;entryX=0;entryY=0.5;entryDx=0;entryDy=0;" parent="WIyWlLk6GJQsqaUBKTNV-1" source="VbChTKFuJ5i-f_LWvNHz-16" target="VbChTKFuJ5i-f_LWvNHz-20" edge="1">
          <mxGeometry relative="1" as="geometry" />
        </mxCell>
        <mxCell id="VbChTKFuJ5i-f_LWvNHz-16" value="Case: Buyer" style="strokeWidth=1;html=1;shape=mxgraph.flowchart.decision;whiteSpace=wrap;" parent="WIyWlLk6GJQsqaUBKTNV-1" vertex="1">
          <mxGeometry x="480" y="390" width="100" height="100" as="geometry" />
        </mxCell>
        <mxCell id="VbChTKFuJ5i-f_LWvNHz-24" style="edgeStyle=orthogonalEdgeStyle;rounded=0;orthogonalLoop=1;jettySize=auto;html=1;entryX=1;entryY=0.5;entryDx=0;entryDy=0;" parent="WIyWlLk6GJQsqaUBKTNV-1" source="VbChTKFuJ5i-f_LWvNHz-20" target="VbChTKFuJ5i-f_LWvNHz-22" edge="1">
          <mxGeometry relative="1" as="geometry">
            <Array as="points">
              <mxPoint x="745" y="540" />
              <mxPoint x="491" y="540" />
            </Array>
          </mxGeometry>
        </mxCell>
        <mxCell id="VbChTKFuJ5i-f_LWvNHz-20" value="Request Buyer Details" style="shape=parallelogram;html=1;strokeWidth=1;perimeter=parallelogramPerimeter;whiteSpace=wrap;rounded=1;arcSize=12;size=0.13333333333333333;" parent="WIyWlLk6GJQsqaUBKTNV-1" vertex="1">
          <mxGeometry x="690" y="398.75" width="110" height="82.5" as="geometry" />
        </mxCell>
        <mxCell id="VbChTKFuJ5i-f_LWvNHz-30" style="edgeStyle=orthogonalEdgeStyle;rounded=0;orthogonalLoop=1;jettySize=auto;html=1;exitX=0.5;exitY=1;exitDx=0;exitDy=0;entryX=0.5;entryY=0;entryDx=0;entryDy=0;" parent="WIyWlLk6GJQsqaUBKTNV-1" source="VbChTKFuJ5i-f_LWvNHz-22" target="VbChTKFuJ5i-f_LWvNHz-25" edge="1">
          <mxGeometry relative="1" as="geometry" />
        </mxCell>
        <mxCell id="VbChTKFuJ5i-f_LWvNHz-22" value="Request USERID for account" style="shape=parallelogram;html=1;strokeWidth=2;perimeter=parallelogramPerimeter;whiteSpace=wrap;rounded=1;arcSize=12;size=0.13333333333333333;spacingLeft=15;spacingRight=20;" parent="WIyWlLk6GJQsqaUBKTNV-1" vertex="1">
          <mxGeometry x="358.13" y="500" width="140" height="80" as="geometry" />
        </mxCell>
        <mxCell id="VbChTKFuJ5i-f_LWvNHz-28" style="edgeStyle=orthogonalEdgeStyle;rounded=0;orthogonalLoop=1;jettySize=auto;html=1;" parent="WIyWlLk6GJQsqaUBKTNV-1" source="VbChTKFuJ5i-f_LWvNHz-25" edge="1">
          <mxGeometry relative="1" as="geometry">
            <mxPoint x="220" y="540" as="targetPoint" />
          </mxGeometry>
        </mxCell>
        <mxCell id="VbChTKFuJ5i-f_LWvNHz-39" value="" style="edgeStyle=orthogonalEdgeStyle;rounded=0;orthogonalLoop=1;jettySize=auto;html=1;" parent="WIyWlLk6GJQsqaUBKTNV-1" source="VbChTKFuJ5i-f_LWvNHz-25" target="VbChTKFuJ5i-f_LWvNHz-36" edge="1">
          <mxGeometry relative="1" as="geometry" />
        </mxCell>
        <mxCell id="VbChTKFuJ5i-f_LWvNHz-49" style="edgeStyle=orthogonalEdgeStyle;rounded=0;orthogonalLoop=1;jettySize=auto;html=1;exitX=0.5;exitY=1;exitDx=0;exitDy=0;entryX=0.5;entryY=0;entryDx=0;entryDy=0;" parent="WIyWlLk6GJQsqaUBKTNV-1" source="VbChTKFuJ5i-f_LWvNHz-25" target="VbChTKFuJ5i-f_LWvNHz-42" edge="1">
          <mxGeometry relative="1" as="geometry" />
        </mxCell>
        <mxCell id="VbChTKFuJ5i-f_LWvNHz-25" value="" style="rhombus;whiteSpace=wrap;html=1;strokeWidth=1;" parent="WIyWlLk6GJQsqaUBKTNV-1" vertex="1">
          <mxGeometry x="346.25" y="620" width="163.75" height="150" as="geometry" />
        </mxCell>
        <mxCell id="VbChTKFuJ5i-f_LWvNHz-26" value="CHECK USERID EXISTS PROCESS" style="verticalLabelPosition=middle;verticalAlign=middle;html=1;shape=process;whiteSpace=wrap;rounded=1;size=0.14;arcSize=6;strokeWidth=1;labelPosition=center;align=center;" parent="WIyWlLk6GJQsqaUBKTNV-1" vertex="1">
          <mxGeometry x="380" y="665" width="100" height="60" as="geometry" />
        </mxCell>
        <mxCell id="j3gHoPE5GJEm7yQWA4g5-0" style="edgeStyle=orthogonalEdgeStyle;rounded=0;orthogonalLoop=1;jettySize=auto;html=1;entryX=1;entryY=0.5;entryDx=0;entryDy=0;" edge="1" parent="WIyWlLk6GJQsqaUBKTNV-1" source="VbChTKFuJ5i-f_LWvNHz-36" target="VbChTKFuJ5i-f_LWvNHz-42">
          <mxGeometry relative="1" as="geometry">
            <Array as="points">
              <mxPoint x="675" y="840" />
            </Array>
          </mxGeometry>
        </mxCell>
        <mxCell id="VbChTKFuJ5i-f_LWvNHz-36" value="REQUEST PASSWORD" style="shape=parallelogram;html=1;strokeWidth=2;perimeter=parallelogramPerimeter;whiteSpace=wrap;rounded=1;arcSize=12;size=0.23;" parent="WIyWlLk6GJQsqaUBKTNV-1" vertex="1">
          <mxGeometry x="610" y="645" width="130" height="100" as="geometry" />
        </mxCell>
        <mxCell id="VbChTKFuJ5i-f_LWvNHz-44" style="edgeStyle=orthogonalEdgeStyle;rounded=0;orthogonalLoop=1;jettySize=auto;html=1;exitX=0;exitY=0.5;exitDx=0;exitDy=0;entryX=1;entryY=0.5;entryDx=0;entryDy=0;entryPerimeter=0;" parent="WIyWlLk6GJQsqaUBKTNV-1" source="VbChTKFuJ5i-f_LWvNHz-42" target="VbChTKFuJ5i-f_LWvNHz-43" edge="1">
          <mxGeometry relative="1" as="geometry" />
        </mxCell>
        <mxCell id="VbChTKFuJ5i-f_LWvNHz-50" style="edgeStyle=orthogonalEdgeStyle;rounded=0;orthogonalLoop=1;jettySize=auto;html=1;exitX=0.5;exitY=1;exitDx=0;exitDy=0;entryX=0.5;entryY=0;entryDx=0;entryDy=0;entryPerimeter=0;" parent="WIyWlLk6GJQsqaUBKTNV-1" source="VbChTKFuJ5i-f_LWvNHz-42" target="VbChTKFuJ5i-f_LWvNHz-45" edge="1">
          <mxGeometry relative="1" as="geometry" />
        </mxCell>
        <mxCell id="VbChTKFuJ5i-f_LWvNHz-42" value="&lt;font style=&quot;font-size: 14px&quot;&gt;SET main_acc struct to current details&lt;/font&gt;" style="rounded=1;whiteSpace=wrap;html=1;absoluteArcSize=1;arcSize=14;strokeWidth=2;" parent="WIyWlLk6GJQsqaUBKTNV-1" vertex="1">
          <mxGeometry x="378.13" y="790" width="100" height="100" as="geometry" />
        </mxCell>
        <mxCell id="VbChTKFuJ5i-f_LWvNHz-43" value="acc.dat" style="strokeWidth=2;html=1;shape=mxgraph.flowchart.database;whiteSpace=wrap;" parent="WIyWlLk6GJQsqaUBKTNV-1" vertex="1">
          <mxGeometry x="170" y="800" width="90" height="80" as="geometry" />
        </mxCell>
        <mxCell id="VbChTKFuJ5i-f_LWvNHz-48" style="edgeStyle=orthogonalEdgeStyle;rounded=0;orthogonalLoop=1;jettySize=auto;html=1;entryX=1;entryY=0.5;entryDx=0;entryDy=0;entryPerimeter=0;" parent="WIyWlLk6GJQsqaUBKTNV-1" source="VbChTKFuJ5i-f_LWvNHz-45" target="VbChTKFuJ5i-f_LWvNHz-46" edge="1">
          <mxGeometry relative="1" as="geometry" />
        </mxCell>
        <mxCell id="VbChTKFuJ5i-f_LWvNHz-52" style="edgeStyle=orthogonalEdgeStyle;rounded=0;orthogonalLoop=1;jettySize=auto;html=1;entryX=0;entryY=0.5;entryDx=0;entryDy=0;entryPerimeter=0;" parent="WIyWlLk6GJQsqaUBKTNV-1" source="VbChTKFuJ5i-f_LWvNHz-45" target="VbChTKFuJ5i-f_LWvNHz-51" edge="1">
          <mxGeometry relative="1" as="geometry" />
        </mxCell>
        <mxCell id="VbChTKFuJ5i-f_LWvNHz-45" value="Check If farmer" style="strokeWidth=2;html=1;shape=mxgraph.flowchart.decision;whiteSpace=wrap;" parent="WIyWlLk6GJQsqaUBKTNV-1" vertex="1">
          <mxGeometry x="380" y="925" width="100" height="100" as="geometry" />
        </mxCell>
        <mxCell id="VbChTKFuJ5i-f_LWvNHz-59" value="" style="edgeStyle=orthogonalEdgeStyle;rounded=0;orthogonalLoop=1;jettySize=auto;html=1;" parent="WIyWlLk6GJQsqaUBKTNV-1" source="VbChTKFuJ5i-f_LWvNHz-46" target="VbChTKFuJ5i-f_LWvNHz-54" edge="1">
          <mxGeometry relative="1" as="geometry" />
        </mxCell>
        <mxCell id="VbChTKFuJ5i-f_LWvNHz-46" value="&lt;p style=&quot;line-height: 120%&quot;&gt;farmer_details.dat&lt;/p&gt;" style="strokeWidth=2;html=1;shape=mxgraph.flowchart.database;whiteSpace=wrap;spacingLeft=15;spacingRight=20;" parent="WIyWlLk6GJQsqaUBKTNV-1" vertex="1">
          <mxGeometry x="170" y="922.5" width="107.5" height="75" as="geometry" />
        </mxCell>
        <mxCell id="VbChTKFuJ5i-f_LWvNHz-60" value="" style="edgeStyle=orthogonalEdgeStyle;rounded=0;orthogonalLoop=1;jettySize=auto;html=1;" parent="WIyWlLk6GJQsqaUBKTNV-1" source="VbChTKFuJ5i-f_LWvNHz-51" target="VbChTKFuJ5i-f_LWvNHz-55" edge="1">
          <mxGeometry relative="1" as="geometry" />
        </mxCell>
        <mxCell id="VbChTKFuJ5i-f_LWvNHz-51" value="buyer_details.dat" style="strokeWidth=2;html=1;shape=mxgraph.flowchart.database;whiteSpace=wrap;" parent="WIyWlLk6GJQsqaUBKTNV-1" vertex="1">
          <mxGeometry x="610" y="925" width="105" height="70" as="geometry" />
        </mxCell>
        <mxCell id="VbChTKFuJ5i-f_LWvNHz-53" value="TERMINATE FUNCTION" style="strokeWidth=2;html=1;shape=mxgraph.flowchart.start_1;whiteSpace=wrap;" parent="WIyWlLk6GJQsqaUBKTNV-1" vertex="1">
          <mxGeometry x="380" y="1070" width="100" height="60" as="geometry" />
        </mxCell>
        <mxCell id="VbChTKFuJ5i-f_LWvNHz-64" style="edgeStyle=orthogonalEdgeStyle;rounded=0;orthogonalLoop=1;jettySize=auto;html=1;entryX=0;entryY=0.5;entryDx=0;entryDy=0;entryPerimeter=0;" parent="WIyWlLk6GJQsqaUBKTNV-1" source="VbChTKFuJ5i-f_LWvNHz-54" target="VbChTKFuJ5i-f_LWvNHz-53" edge="1">
          <mxGeometry relative="1" as="geometry" />
        </mxCell>
        <mxCell id="VbChTKFuJ5i-f_LWvNHz-54" value="SET main_farmer to current" style="rounded=1;whiteSpace=wrap;html=1;absoluteArcSize=1;arcSize=14;strokeWidth=2;" parent="WIyWlLk6GJQsqaUBKTNV-1" vertex="1">
          <mxGeometry x="171.75" y="1040" width="104" height="70" as="geometry" />
        </mxCell>
        <mxCell id="VbChTKFuJ5i-f_LWvNHz-63" style="edgeStyle=orthogonalEdgeStyle;rounded=0;orthogonalLoop=1;jettySize=auto;html=1;entryX=1;entryY=0.5;entryDx=0;entryDy=0;entryPerimeter=0;" parent="WIyWlLk6GJQsqaUBKTNV-1" source="VbChTKFuJ5i-f_LWvNHz-55" target="VbChTKFuJ5i-f_LWvNHz-53" edge="1">
          <mxGeometry relative="1" as="geometry" />
        </mxCell>
        <mxCell id="VbChTKFuJ5i-f_LWvNHz-55" value="SET main_buyer to current" style="rounded=1;whiteSpace=wrap;html=1;absoluteArcSize=1;arcSize=14;strokeWidth=2;" parent="WIyWlLk6GJQsqaUBKTNV-1" vertex="1">
          <mxGeometry x="610.5" y="1040" width="104" height="70" as="geometry" />
        </mxCell>
      </root>
    </mxGraphModel>
  </diagram>
</mxfile>
